<?xml version="1.0" encoding="utf-8"?>
<!-- Generator: Adobe Illustrator 18.1.1, SVG Export Plug-In . SVG Version: 6.00 Build 0)  -->
<svg version="1.1" id="Layer_1" xmlns="http://www.w3.org/2000/svg" xmlns:xlink="http://www.w3.org/1999/xlink" x="0px" y="0px"
	 viewBox="0 0 96 96" enable-background="new 0 0 96 96" xml:space="preserve">
<g>
	<path fill="#FFC72A" d="M48,96c-1.3,0-2.5-0.5-3.5-1.4c-1.8-1.8-4.7-2.9-7.5-2.9c-1.3,0-2.5,0.2-3.6,0.7c-0.6,0.2-1.2,0.4-1.9,0.4
		c-2,0-3.8-1.2-4.5-3c-1.5-3.5-5.6-6.3-9.5-6.3c-2.7,0-4.9-2.2-4.9-4.9c0-3.8-2.8-8-6.3-9.5c-1.2-0.5-2.1-1.4-2.6-2.7
		c-0.5-1.2-0.5-2.5,0-3.7c1.5-3.5,0.5-8.4-2.2-11.2C0.5,50.5,0,49.3,0,48s0.5-2.5,1.4-3.5c2.7-2.7,3.7-7.6,2.2-11.2
		c-0.5-1.2-0.5-2.5,0-3.7c0.5-1.2,1.4-2.2,2.6-2.7c3.5-1.5,6.3-5.6,6.3-9.5c0-2.7,2.2-4.9,4.9-4.9c3.8,0,8-2.8,9.5-6.3
		c0.8-1.8,2.5-3,4.5-3c0.6,0,1.3,0.1,1.9,0.4c1.1,0.4,2.3,0.7,3.6,0.7c2.9,0,5.8-1.1,7.5-2.9C45.5,0.5,46.7,0,48,0
		c1.3,0,2.5,0.5,3.5,1.4c1.8,1.8,4.7,2.9,7.5,2.9c1.3,0,2.5-0.2,3.6-0.7c0.6-0.2,1.2-0.4,1.9-0.4c2,0,3.8,1.2,4.5,3
		c1.5,3.5,5.6,6.3,9.5,6.3c2.7,0,4.9,2.2,4.9,4.9c0,3.8,2.8,8,6.3,9.5c1.2,0.5,2.1,1.4,2.6,2.7c0.5,1.2,0.5,2.5,0,3.7
		c-1.5,3.5-0.5,8.4,2.2,11.2c0.9,0.9,1.4,2.2,1.4,3.5s-0.5,2.5-1.4,3.5c-2.7,2.7-3.7,7.6-2.2,11.2c0.5,1.2,0.5,2.5,0,3.7
		c-0.5,1.2-1.4,2.2-2.6,2.7c-3.5,1.5-6.3,5.6-6.3,9.5c0,2.7-2.2,4.9-4.9,4.9c-3.8,0-8,2.8-9.5,6.3c-0.8,1.8-2.5,3-4.5,3
		c-0.6,0-1.3-0.1-1.9-0.4c-1.1-0.4-2.3-0.7-3.6-0.7c-2.9,0-5.8,1.1-7.5,2.9C50.5,95.5,49.3,96,48,96z M37,90.7
		c3.1,0,6.3,1.2,8.3,3.2C46,94.6,47,95,48,95c1,0,2-0.4,2.8-1.1c2-2,5.1-3.2,8.3-3.2c1.4,0,2.8,0.3,4,0.7c0.5,0.2,1,0.3,1.5,0.3
		c1.6,0,3-0.9,3.6-2.4c1.6-3.9,6.2-6.9,10.4-6.9c2.2,0,3.9-1.8,3.9-3.9c0-4.2,3-8.8,6.9-10.4c1-0.4,1.7-1.1,2.1-2.1c0.4-1,0.4-2,0-3
		c-1.6-3.9-0.5-9.3,2.4-12.2C94.6,50,95,49,95,48c0-1-0.4-2-1.1-2.8c-3-3-4-8.4-2.4-12.2c0.4-1,0.4-2,0-3c-0.4-1-1.1-1.7-2.1-2.1
		c-3.9-1.6-6.9-6.2-6.9-10.4c0-2.2-1.8-3.9-3.9-3.9c-4.2,0-8.8-3-10.4-6.9c-0.6-1.5-2-2.4-3.6-2.4c-0.5,0-1,0.1-1.5,0.3
		c-1.2,0.5-2.5,0.7-4,0.7c-3.1,0-6.3-1.2-8.3-3.2c-1.5-1.5-4.1-1.5-5.5,0c-2,2-5.1,3.2-8.3,3.2c-1.4,0-2.8-0.3-4-0.7
		c-0.5-0.2-1-0.3-1.5-0.3c-1.6,0-3,0.9-3.6,2.4c-1.6,3.9-6.2,6.9-10.4,6.9c-2.2,0-3.9,1.8-3.9,3.9c0,4.2-3,8.8-6.9,10.4
		C5.7,28.3,5,29,4.6,30c-0.4,1-0.4,2,0,3c1.6,3.9,0.5,9.3-2.4,12.2C1.4,46,1,47,1,48c0,1,0.4,2,1.1,2.8c3,3,4,8.4,2.4,12.2
		c-0.4,1-0.4,2,0,3c0.4,1,1.1,1.7,2.1,2.1c3.9,1.6,6.9,6.2,6.9,10.4c0,2.2,1.8,3.9,3.9,3.9c4.2,0,8.8,3,10.4,6.9
		c0.6,1.5,2,2.4,3.6,2.4c0.5,0,1-0.1,1.5-0.3C34.2,90.9,35.5,90.7,37,90.7z"/>
	<g>
		<path fill="#FFC72A" d="M48,92C23.7,92,4,72.3,4,48S23.7,4,48,4c24.3,0,44,19.7,44,44S72.3,92,48,92z M48,5C24.3,5,5,24.3,5,48
			c0,23.7,19.3,43,43,43s43-19.3,43-43C91,24.3,71.7,5,48,5z"/>
	</g>
	<g>
		<path fill="#FFC72A" d="M21.7,50.2V37.8L18.5,39L18,35.9l4.1-1.9h3.6v16.2H21.7z"/>
		<path fill="#FFC72A" d="M35,50.5c-4,0-6.7-3-6.7-8.4c0-5.4,2.7-8.4,6.7-8.4c4,0,6.7,3,6.7,8.4C41.7,47.5,39,50.5,35,50.5z
			 M35,36.8c-1.9,0-2.8,1.9-2.8,5.4c0,3.4,0.9,5.4,2.8,5.4c1.9,0,2.7-1.9,2.7-5.4C37.7,38.7,36.8,36.8,35,36.8z"/>
		<path fill="#FFC72A" d="M50.2,50.5c-4,0-6.7-3-6.7-8.4c0-5.4,2.7-8.4,6.7-8.4c4,0,6.7,3,6.7,8.4C56.8,47.5,54.2,50.5,50.2,50.5z
			 M50.2,36.8c-1.9,0-2.8,1.9-2.8,5.4c0,3.4,0.9,5.4,2.8,5.4c1.9,0,2.7-1.9,2.7-5.4C52.9,38.7,52,36.8,50.2,36.8z"/>
		<path fill="#FFC72A" d="M62.5,43.4c-2.2,0-4-1.7-4-4.8c0-3.1,1.8-4.8,4-4.8c2.2,0,4,1.7,4,4.7C66.5,41.7,64.7,43.4,62.5,43.4z
			 M62.5,35.8c-1,0-1.5,1-1.5,2.7c0,1.7,0.5,2.7,1.5,2.7c1,0,1.5-1,1.5-2.7C63.9,36.9,63.4,35.8,62.5,35.8z M62,49.9l5.2-8l5.1-8
			l2.2,0.5l-5.2,8l-5.1,8L62,49.9z M74,50.4c-2.2,0-4-1.7-4-4.7c0-3.1,1.8-4.8,4-4.8c2.2,0,4,1.7,4,4.8C78,48.7,76.2,50.4,74,50.4z
			 M74,42.9c-1,0-1.5,1-1.5,2.8c0,1.7,0.5,2.7,1.5,2.7c1,0,1.5-1,1.5-2.8C75.5,43.9,75,42.9,74,42.9z"/>
		<path fill="#FFC72A" d="M21.4,62.3c-2.2,0-3.4-1.4-3.4-3.6c0-2.1,1.3-3.6,3.4-3.6c0.8,0,1.6,0.2,2.1,0.5l-0.2,1.5
			c-0.5-0.3-1.1-0.6-1.8-0.6c-1.2,0-1.8,0.9-1.8,2.2c0,1.3,0.6,2.2,1.8,2.2c0.4,0,0.6-0.1,0.9-0.2v-1.2h-1.2L21,58.2h2.9v3.3
			C23.2,62,22.3,62.3,21.4,62.3z"/>
		<path fill="#FFC72A" d="M28.3,62.3c-1.7,0-2.9-0.9-2.9-2.8v-4.2h1.7v4.1c0,0.9,0.4,1.4,1.2,1.4c0.8,0,1.2-0.5,1.2-1.4v-4.2h1.7
			v4.1C31.1,61.3,29.9,62.3,28.3,62.3z"/>
		<path fill="#FFC72A" d="M34.4,55.3h1.9l2.4,6.7L37,62.2l-0.5-1.5h-2.4l-0.5,1.4h-1.7L34.4,55.3z M34.5,59.4H36L35.3,57L34.5,59.4z
			"/>
		<path fill="#FFC72A" d="M43.4,62.2l-1.5-2.4h-0.4v2.4h-1.7v-6.9h2.4c1.7,0,2.6,0.8,2.6,2.2c0,1-0.5,1.6-1.3,2l1.7,2.5L43.4,62.2z
			 M42,56.6h-0.5v2H42c0.7,0,1.2-0.4,1.2-1C43.2,56.9,42.8,56.6,42,56.6z"/>
		<path fill="#FFC72A" d="M48.6,55.3h1.9l2.4,6.7l-1.7,0.3l-0.5-1.5h-2.4l-0.5,1.4h-1.7L48.6,55.3z M48.6,59.4h1.5L49.4,57
			L48.6,59.4z"/>
		<path fill="#FFC72A" d="M58.2,62.1L55.5,58v4.1H54v-6.9h1.7l2.5,3.8v-3.8h1.6v6.9H58.2z"/>
		<path fill="#FFC72A" d="M64.6,56.7v5.4h-1.7v-5.4h-1.9v-1.4h5.4l0.2,1.4H64.6z"/>
		<path fill="#FFC72A" d="M67.7,62.1v-6.9H72v1.4h-2.6v1.3h2l0.2,1.4h-2.2v1.5h2.7v1.4H67.7z"/>
		<path fill="#FFC72A" d="M73.6,62.1v-6.9h4.3v1.4h-2.6v1.3h2l0.2,1.4h-2.2v1.5h2.7v1.4H73.6z"/>
	</g>
</g>
</svg>
