<?xml version="1.0" encoding="utf-8"?>
<!-- Generator: Adobe Illustrator 18.1.1, SVG Export Plug-In . SVG Version: 6.00 Build 0)  -->
<svg version="1.1" id="Layer_1" xmlns="http://www.w3.org/2000/svg" xmlns:xlink="http://www.w3.org/1999/xlink" x="0px" y="0px"
	 viewBox="0 0 397.3 216" enable-background="new 0 0 397.3 216" xml:space="preserve">
<g>
	<path fill="#00B2D8" d="M187.1,172.5c-2.5-2.5-6.5-2.5-9,0c0,0,0,0-0.1,0.1c-17.4,18.9-42.4,30.8-70,30.8
		c-52.5,0-95.3-42.7-95.3-95.3c0-52.5,42.7-95.3,95.3-95.3c27.5,0,52.3,11.7,69.7,30.4c0.1,0.2,0.3,0.3,0.4,0.5c2.5,2.5,6.5,2.5,9,0
		c2.4-2.4,2.5-6.2,0.2-8.7c0,0,0-0.1,0-0.1C167.6,13.4,139.4,0,108,0C48.4,0,0,48.4,0,108c0,59.6,48.4,108,108,108
		c31.2,0,59.2-13.2,78.9-34.3c0.1-0.1,0.1-0.1,0.2-0.2c0.1-0.1,0.2-0.2,0.2-0.3c0,0,0,0,0,0c0,0,0,0,0,0
		C189.6,178.7,189.5,174.9,187.1,172.5z"/>
	<path fill="#00B2D8" d="M115.5,144.8c13.4-1.6,22.4-10.1,22.4-23c0-11.3-6.5-18.4-20.1-21.7l-14.6-3C99.4,96.3,97,94,97,91
		c0-2.4,1.1-4.2,2.6-5.3c1.6-1.1,3.9-1.7,6.6-1.7c6,0,9.9,2.3,11.7,7h19.3c-1-7.1-4.2-12.9-10.5-17.2c-3.3-2.3-6.9-3.7-11.1-4.6
		V56.9h-15.4v12.3c-13.4,2.4-22.4,11.7-22.4,24c0,7.9,3.9,14,9.5,17.2c2.8,1.6,6,2.8,9.8,3.7l14.7,3c2.4,0.5,4,1,5.3,1.9
		c1.1,1,1.7,2.4,1.7,4.2c0,4.7-3.6,7-10.1,7c-6.7,0-10.8-2.5-12.3-7.7h-20c2.3,12.3,10.6,20,23.8,22.4v12.3h15.4L115.5,144.8z"/>
	<path fill="#00B2D8" d="M289.3,0c-59.6,0-108,48.4-108,108c0,59.6,48.4,108,108,108s108-48.4,108-108C397.3,48.4,348.9,0,289.3,0z
		 M265.5,142.8l-9.2-17.1l-8.9,16.3h-15.9l16.3-26.6l-15.5-26l17.4-2.1l8.4,15.6l8.1-14.9H282l-15.5,25.4l16.4,27.2L265.5,142.8z
		 M290.1,143.3v-13.6l26.6-26.6c5.1-5.3,7.8-8.9,7.8-14.1c0-5.3-3.7-8.2-9.9-8.2c-6.9,0-13.8,3.1-20.5,7.9l-2.3-16.2
		c6.6-4.5,14.8-7.7,25.6-7.7c15.9,0,25.7,8.3,25.7,22.2c0,10.5-5.3,17.4-14.6,26.3l-15.4,14.9h29.2l2.4,15.2H290.1z"/>
</g>
</svg>
